<svg id="svg" version="1.1" xmlns="http://www.w3.org/2000/svg" xmlns:xlink="http://www.w3.org/1999/xlink" width="400" height="400" viewBox="0, 0, 400,400"><g id="svgg"><path id="path0" d="M0.000 200.000 L 0.000 400.000 200.000 400.000 L 400.000 400.000 400.000 200.000 L 400.000 0.000 200.000 0.000 L 0.000 0.000 0.000 200.000 M156.000 200.000 L 156.000 260.000 96.000 260.000 L 36.000 260.000 36.000 228.000 L 36.000 196.000 64.000 196.000 L 92.000 196.000 92.000 168.000 L 92.000 140.000 124.000 140.000 L 156.000 140.000 156.000 200.000 M250.667 176.000 C 252.040 177.373,251.026 179.444,248.980 179.444 C 247.125 179.444,246.222 177.656,247.352 176.219 C 248.203 175.137,249.705 175.038,250.667 176.000 M284.333 176.000 C 285.719 177.386,284.689 179.444,282.610 179.444 C 281.462 179.444,280.333 178.379,280.333 177.296 C 280.333 176.347,281.538 175.333,282.667 175.333 C 283.222 175.333,283.963 175.630,284.333 176.000 M188.333 177.667 L 188.333 179.333 183.500 179.333 L 178.667 179.333 178.667 181.656 L 178.667 183.979 182.750 184.073 L 186.833 184.167 186.935 185.750 L 187.037 187.333 182.852 187.333 L 178.667 187.333 178.667 190.000 L 178.667 192.667 183.500 192.667 L 188.333 192.667 188.333 194.333 L 188.333 196.000 181.500 196.000 L 174.667 196.000 174.667 186.000 L 174.667 176.000 181.500 176.000 L 188.333 176.000 188.333 177.667 M228.611 178.583 C 228.987 180.004,229.786 183.072,230.386 185.400 C 230.986 187.729,231.556 189.555,231.652 189.459 C 231.748 189.363,232.590 186.333,233.523 182.725 L 235.218 176.167 237.470 176.067 C 239.507 175.978,239.704 176.025,239.538 176.567 C 239.436 176.897,238.514 179.942,237.487 183.333 C 236.461 186.725,235.173 190.969,234.625 192.765 L 233.629 196.031 231.567 195.932 L 229.506 195.833 226.770 186.833 C 225.266 181.883,223.940 177.421,223.824 176.917 L 223.614 176.000 225.770 176.000 L 227.927 176.000 228.611 178.583 M201.894 181.865 C 203.224 182.851,204.333 184.602,204.333 185.716 C 204.333 187.255,201.071 187.155,200.333 185.593 C 199.359 183.531,196.514 183.642,195.612 185.779 C 194.903 187.459,195.044 190.786,195.873 191.900 C 197.033 193.461,200.667 193.151,200.667 191.492 C 200.667 191.118,201.105 191.000,202.500 191.000 C 205.376 191.000,204.640 193.918,201.343 195.583 C 194.869 198.854,188.600 191.470,191.973 184.546 C 193.605 181.195,199.016 179.733,201.894 181.865 M217.562 181.355 C 221.068 182.679,222.927 188.188,221.209 192.162 C 218.470 198.498,209.362 197.405,207.928 190.568 C 206.596 184.216,211.846 179.195,217.562 181.355 M251.000 186.833 L 251.000 192.667 253.000 192.667 L 255.000 192.667 255.000 194.333 L 255.000 196.000 249.000 196.000 L 243.000 196.000 243.000 194.333 L 243.000 192.667 245.000 192.667 L 247.000 192.667 247.000 188.500 L 247.000 184.333 245.000 184.333 L 243.000 184.333 243.000 182.667 L 243.000 181.000 247.000 181.000 L 251.000 181.000 251.000 186.833 M269.216 181.690 C 270.625 182.373,272.000 184.068,272.000 185.123 C 272.000 185.997,268.122 185.909,267.842 185.028 C 267.400 183.633,263.694 183.370,262.991 184.684 C 262.276 186.019,262.927 186.521,266.290 187.227 C 270.230 188.055,272.000 189.398,272.000 191.562 C 272.000 197.065,261.517 198.190,258.821 192.977 C 258.048 191.480,258.183 191.333,260.333 191.333 C 261.875 191.333,262.333 191.446,262.333 191.826 C 262.333 193.384,266.935 193.905,267.893 192.455 C 268.580 191.416,267.874 190.869,264.933 190.160 C 260.595 189.115,259.000 187.861,259.000 185.496 C 259.000 181.794,264.894 179.598,269.216 181.690 M284.667 186.833 L 284.667 192.667 286.667 192.667 L 288.667 192.667 288.667 194.333 L 288.667 196.000 282.482 196.000 L 276.297 196.000 276.398 194.417 L 276.500 192.833 278.583 192.734 L 280.667 192.635 280.667 188.484 L 280.667 184.333 278.500 184.333 L 276.333 184.333 276.333 182.889 C 276.333 180.956,276.230 181.000,280.722 181.000 L 284.667 181.000 284.667 186.833 M301.562 181.355 C 307.123 183.456,307.307 193.177,301.833 195.703 C 294.896 198.905,288.776 190.382,293.164 183.632 C 294.618 181.395,298.723 180.282,301.562 181.355 M312.667 181.611 C 312.667 182.613,312.991 182.653,314.240 181.805 C 315.651 180.848,318.458 180.703,320.013 181.507 C 321.951 182.509,322.333 183.960,322.333 190.320 L 322.333 196.000 320.333 196.000 L 318.333 196.000 318.328 190.750 C 318.323 185.043,318.286 184.886,316.840 184.336 C 313.763 183.166,313.000 184.434,313.000 190.718 L 313.000 196.000 311.000 196.000 L 309.000 196.000 309.000 188.722 C 309.000 184.719,309.100 181.344,309.222 181.222 C 309.780 180.665,312.667 180.991,312.667 181.611 M213.667 184.418 C 210.608 185.976,211.243 192.665,214.475 192.938 C 216.293 193.092,217.203 192.348,217.629 190.362 C 218.502 186.293,216.343 183.055,213.667 184.418 M297.769 184.329 C 295.798 185.143,295.026 189.866,296.534 191.892 C 298.152 194.067,301.065 193.175,301.710 190.307 C 302.565 186.500,300.415 183.238,297.769 184.329 " stroke="none" fill="#fbfbfb" fill-rule="evenodd"></path><path id="path1" d="M248.000 175.763 C 246.249 176.644,247.042 179.333,249.052 179.333 C 251.052 179.333,251.885 177.521,250.515 176.152 C 249.591 175.227,249.188 175.165,248.000 175.763 M281.667 175.763 C 279.958 176.622,280.625 179.333,282.546 179.333 C 283.991 179.333,284.667 178.752,284.667 177.507 C 284.667 175.738,283.297 174.942,281.667 175.763 M175.000 186.000 L 175.000 196.000 181.667 196.000 L 188.333 196.000 188.333 194.500 L 188.333 193.000 183.500 193.000 L 178.667 193.000 178.667 190.167 L 178.667 187.333 182.667 187.333 L 186.667 187.333 186.667 185.833 L 186.667 184.333 182.667 184.333 L 178.667 184.333 178.667 181.833 L 178.667 179.333 183.333 179.333 L 188.000 179.333 188.000 177.667 L 188.000 176.000 181.500 176.000 L 175.000 176.000 175.000 186.000 M223.747 176.400 C 223.887 176.769,227.764 189.531,229.221 194.417 L 229.692 196.000 231.607 196.000 L 233.522 196.000 236.441 186.250 C 239.888 174.736,239.772 176.000,237.379 176.000 L 235.424 176.000 234.020 181.417 C 233.247 184.396,232.379 187.658,232.090 188.667 L 231.565 190.500 229.699 183.333 L 227.833 176.167 225.708 176.066 C 224.071 175.989,223.620 176.066,223.747 176.400 M195.153 181.605 C 189.445 184.288,190.153 194.451,196.153 195.962 C 199.796 196.879,204.333 194.470,204.333 191.617 C 204.333 190.574,201.109 190.729,200.623 191.797 C 198.998 195.363,195.000 193.015,195.000 188.494 C 195.000 184.170,199.347 182.024,200.633 185.713 C 201.091 187.027,204.337 187.207,204.328 185.917 C 204.302 182.364,198.919 179.835,195.153 181.605 M211.820 181.605 C 205.004 184.808,207.357 196.169,214.833 196.157 C 223.748 196.142,224.186 181.727,215.290 181.118 C 213.672 181.007,212.846 181.123,211.820 181.605 M263.000 181.216 C 256.607 183.749,258.028 188.824,265.500 190.147 C 267.352 190.475,268.398 191.210,268.270 192.096 C 268.002 193.963,264.188 194.145,262.599 192.366 C 261.491 191.126,258.666 190.803,258.668 191.917 C 258.678 196.454,268.493 197.817,271.273 193.667 C 273.056 191.005,271.201 188.451,266.789 187.495 C 262.802 186.631,261.598 185.453,263.408 184.186 C 264.856 183.171,268.000 183.855,268.000 185.186 C 268.000 185.552,268.482 185.667,270.022 185.667 C 272.256 185.667,272.408 185.316,271.034 183.333 C 269.878 181.665,265.068 180.397,263.000 181.216 M295.833 181.630 C 290.758 183.972,290.508 192.823,295.445 195.409 C 301.438 198.548,307.572 192.456,305.287 185.633 C 303.987 181.750,299.599 179.892,295.833 181.630 M315.167 181.444 C 314.616 181.693,313.961 182.146,313.709 182.449 C 313.056 183.236,312.667 183.130,312.667 182.167 C 312.667 181.389,312.556 181.333,311.000 181.333 L 309.333 181.333 309.333 188.667 L 309.333 196.000 311.167 196.000 L 313.000 196.000 313.000 190.509 L 313.000 185.017 313.983 184.509 C 317.475 182.703,318.475 184.030,318.606 190.636 L 318.713 196.000 320.544 196.000 L 322.376 196.000 322.271 190.250 C 322.158 184.031,321.944 183.135,320.275 181.900 C 319.156 181.072,316.506 180.835,315.167 181.444 M243.000 182.833 L 243.000 184.333 245.167 184.333 L 247.333 184.333 247.333 188.667 L 247.333 193.000 245.167 193.000 L 243.000 193.000 243.000 194.500 L 243.000 196.000 249.000 196.000 L 255.000 196.000 255.000 194.500 L 255.000 193.000 253.000 193.000 L 251.000 193.000 251.000 187.167 L 251.000 181.333 247.000 181.333 L 243.000 181.333 243.000 182.833 M276.667 182.833 L 276.667 184.333 278.667 184.333 L 280.667 184.333 280.667 188.667 L 280.667 193.000 278.667 193.000 L 276.667 193.000 276.667 194.500 L 276.667 196.000 282.667 196.000 L 288.667 196.000 288.667 194.500 L 288.667 193.000 286.667 193.000 L 284.667 193.000 284.667 187.167 L 284.667 181.333 280.667 181.333 L 276.667 181.333 276.667 182.833 M216.780 184.871 C 218.910 187.001,218.153 192.220,215.580 193.137 C 213.418 193.907,211.667 191.839,211.667 188.516 C 211.667 184.559,214.470 182.561,216.780 184.871 M300.780 184.871 C 302.500 186.591,302.458 190.830,300.704 192.397 C 298.280 194.563,295.667 192.639,295.667 188.689 C 295.667 184.608,298.443 182.534,300.780 184.871 M92.000 228.000 L 92.000 260.000 124.000 260.000 L 156.000 260.000 156.000 228.000 L 156.000 196.000 124.000 196.000 L 92.000 196.000 92.000 228.000 " stroke="none" fill="#406353" fill-rule="evenodd"></path><path id="path2" d="M36.000 228.000 L 36.000 260.000 64.000 260.000 L 92.000 260.000 92.000 228.000 L 92.000 196.000 64.000 196.000 L 36.000 196.000 36.000 228.000 " stroke="none" fill="#84948c" fill-rule="evenodd"></path><path id="path3" d="M92.000 168.000 L 92.000 196.000 124.000 196.000 L 156.000 196.000 156.000 168.000 L 156.000 140.000 124.000 140.000 L 92.000 140.000 92.000 168.000 M244.917 181.247 C 246.063 181.312,247.938 181.312,249.083 181.247 C 250.229 181.182,249.292 181.128,247.000 181.128 C 244.708 181.128,243.771 181.182,244.917 181.247 M276.467 181.465 C 276.369 181.721,276.349 182.508,276.422 183.215 C 276.549 184.444,276.557 184.431,276.611 182.927 L 276.667 181.354 280.750 181.249 L 284.833 181.144 280.740 181.072 C 277.496 181.015,276.609 181.097,276.467 181.465 M310.083 181.239 C 310.587 181.315,311.412 181.315,311.917 181.239 C 312.421 181.162,312.008 181.100,311.000 181.100 C 309.992 181.100,309.579 181.162,310.083 181.239 M180.583 184.247 C 181.729 184.312,183.604 184.312,184.750 184.247 C 185.896 184.182,184.958 184.128,182.667 184.128 C 180.375 184.128,179.438 184.182,180.583 184.247 M318.467 191.167 C 318.467 193.917,318.519 194.997,318.581 193.568 C 318.644 192.139,318.644 189.889,318.581 188.568 C 318.517 187.247,318.466 188.417,318.467 191.167 M191.091 188.667 C 191.091 189.492,191.156 189.829,191.235 189.417 C 191.315 189.004,191.315 188.329,191.235 187.917 C 191.156 187.504,191.091 187.842,191.091 188.667 M221.744 188.667 C 221.744 189.308,221.813 189.571,221.896 189.250 C 221.980 188.929,221.980 188.404,221.896 188.083 C 221.813 187.762,221.744 188.025,221.744 188.667 M305.744 188.667 C 305.744 189.308,305.813 189.571,305.896 189.250 C 305.980 188.929,305.980 188.404,305.896 188.083 C 305.813 187.762,305.744 188.025,305.744 188.667 M181.099 192.915 C 182.528 192.977,184.778 192.977,186.099 192.914 C 187.419 192.851,186.250 192.800,183.500 192.800 C 180.750 192.800,179.669 192.852,181.099 192.915 M243.917 192.908 C 244.512 192.982,245.487 192.982,246.083 192.908 C 246.679 192.834,246.192 192.773,245.000 192.773 C 243.808 192.773,243.321 192.834,243.917 192.908 M251.917 192.908 C 252.512 192.982,253.487 192.982,254.083 192.908 C 254.679 192.834,254.192 192.773,253.000 192.773 C 251.808 192.773,251.321 192.834,251.917 192.908 M276.467 193.132 C 276.369 193.387,276.349 194.175,276.422 194.882 C 276.549 196.115,276.557 196.103,276.611 194.599 L 276.667 193.032 278.750 192.913 L 280.833 192.795 278.740 192.731 C 277.210 192.684,276.598 192.792,276.467 193.132 M285.583 192.908 C 286.179 192.982,287.154 192.982,287.750 192.908 C 288.346 192.834,287.858 192.773,286.667 192.773 C 285.475 192.773,284.987 192.834,285.583 192.908 " stroke="none" fill="#94bba4" fill-rule="evenodd"></path><path id="path4" d="M174.814 186.167 C 174.814 191.667,174.860 193.963,174.916 191.271 C 174.972 188.578,174.972 184.078,174.916 181.271 C 174.860 178.463,174.815 180.667,174.814 186.167 M188.091 177.667 C 188.091 178.492,188.156 178.829,188.235 178.417 C 188.315 178.004,188.315 177.329,188.235 176.917 C 188.156 176.504,188.091 176.842,188.091 177.667 M309.143 188.667 C 309.143 192.792,309.190 194.479,309.249 192.417 C 309.307 190.354,309.307 186.979,309.249 184.917 C 309.190 182.854,309.143 184.542,309.143 188.667 M186.757 185.667 C 186.757 186.492,186.822 186.829,186.902 186.417 C 186.981 186.004,186.981 185.329,186.902 184.917 C 186.822 184.504,186.757 184.842,186.757 185.667 M247.131 188.667 C 247.131 191.142,247.183 192.154,247.247 190.917 C 247.311 189.679,247.311 187.654,247.247 186.417 C 247.183 185.179,247.131 186.192,247.131 188.667 M207.744 188.667 C 207.744 189.308,207.813 189.571,207.896 189.250 C 207.980 188.929,207.980 188.404,207.896 188.083 C 207.813 187.762,207.744 188.025,207.744 188.667 " stroke="none" fill="#848c94" fill-rule="evenodd"></path></g></svg>